<?xml version="1.0" standalone="no"?>
<!DOCTYPE svg PUBLIC "-//W3C//DTD SVG 20010904//EN"
 "http://www.w3.org/TR/2001/REC-SVG-20010904/DTD/svg10.dtd">
<svg version="1.0" xmlns="http://www.w3.org/2000/svg"
 width="616.000000pt" height="535.000000pt" viewBox="0 0 616.000000 535.000000"
 preserveAspectRatio="xMidYMid meet">

<g transform="translate(0.000000,535.000000) scale(0.100000,-0.100000)"
fill="white" stroke="none">
<path d="M2617 4863 c-14 -4 -18 -11 -14 -30 4 -21 2 -24 -18 -19 -41 10 -50
-59 -10 -74 30 -11 33 -30 5 -30 -15 0 -20 -7 -20 -25 0 -14 7 -28 15 -30 49
-16 48 -15 35 -30 -11 -13 -9 -20 10 -40 16 -17 30 -56 46 -131 13 -59 21
-110 18 -113 -3 -3 -21 11 -40 32 -19 21 -42 36 -52 35 -12 -2 -18 5 -20 22
-7 47 -52 72 -52 29 0 -27 -23 -19 -30 11 -9 40 -70 48 -70 9 0 -15 -5 -17
-28 -13 -23 5 -30 1 -40 -21 -15 -32 -8 -45 24 -45 24 0 34 -23 14 -35 -8 -5
-7 -11 1 -21 15 -18 34 -18 64 2 25 16 27 15 29 -21 1 -30 51 -33 66 -5 11 20
12 21 25 4 12 -17 14 -17 40 0 23 15 31 16 57 5 30 -12 30 -13 25 -68 -7 -57
-22 -123 -58 -243 -17 -57 -24 -69 -46 -74 -17 -5 -38 -1 -59 11 -32 17 -143
127 -257 255 -49 55 -57 61 -52 38 7 -37 -9 -35 -37 3 -17 23 -28 29 -45 24
-19 -4 -23 -1 -23 19 0 15 -8 30 -19 36 -29 15 -41 12 -41 -10 0 -28 -14 -25
-28 5 -9 19 -19 25 -42 25 -25 0 -30 -4 -30 -23 0 -18 -5 -23 -27 -22 -24 0
-28 -4 -31 -32 -3 -31 -1 -33 28 -33 28 0 30 -2 20 -20 -6 -11 -8 -25 -5 -30
9 -15 51 -12 65 5 18 22 30 18 30 -10 0 -21 5 -25 29 -25 21 0 32 6 36 20 7
23 16 25 32 9 8 -8 18 -6 37 6 16 11 35 15 50 11 25 -6 39 -21 157 -170 55
-68 129 -138 176 -164 12 -7 12 -19 3 -75 -7 -37 -16 -67 -21 -67 -4 0 -14 18
-20 40 -10 33 -16 39 -31 34 -17 -5 -19 -2 -13 28 5 26 2 38 -10 48 -15 12
-19 12 -30 -3 -18 -25 -25 -21 -25 16 0 27 -6 36 -26 46 -31 14 -44 7 -44 -21
0 -20 -1 -20 -18 -5 -24 22 -31 21 -53 -5 -20 -22 -11 -48 17 -48 18 0 18 -14
-1 -30 -11 -9 -12 -17 -4 -32 9 -16 17 -18 50 -13 42 7 45 4 29 -26 -9 -16 -7
-21 15 -31 21 -9 28 -8 45 7 20 18 21 18 26 -2 5 -18 11 -20 45 -16 21 3 39 4
40 2 0 -2 6 -58 14 -125 15 -142 31 -187 138 -382 81 -147 93 -178 83 -216
-11 -45 -107 -70 -172 -46 -26 10 -26 12 -20 69 5 44 3 60 -6 64 -10 3 -9 9 5
24 16 18 24 73 11 73 -3 0 -14 -5 -25 -10 -24 -13 -27 11 -4 30 21 17 19 43
-5 65 -18 16 -20 16 -26 1 -9 -24 -21 -20 -28 10 -6 22 -11 25 -34 19 -36 -9
-43 -24 -25 -52 15 -22 14 -23 -11 -23 -21 0 -26 -5 -26 -25 0 -18 7 -28 24
-35 34 -13 40 -27 16 -40 -16 -9 -18 -15 -10 -30 5 -10 20 -20 32 -22 14 -2
24 -11 26 -23 1 -11 16 -28 32 -37 17 -9 30 -24 30 -33 0 -8 -2 -15 -4 -15
-24 0 -188 70 -233 99 -62 40 -183 163 -183 185 0 21 27 39 68 46 28 4 36 10
34 23 -3 19 10 22 38 7 13 -7 24 -5 40 8 20 16 21 19 6 31 -25 21 -19 31 16
24 23 -5 34 -2 45 12 19 27 16 42 -9 49 -22 6 -22 7 -5 20 20 15 22 37 5 54
-18 18 -46 14 -53 -8 -6 -19 -25 -28 -25 -12 -1 23 -18 34 -39 23 -16 -9 -21
-21 -21 -53 0 -39 -1 -40 -18 -24 -18 15 -20 15 -37 -4 -16 -17 -17 -25 -7
-40 16 -26 15 -40 -3 -40 -10 0 -15 -10 -15 -34 0 -39 -26 -69 -41 -45 -11 18
-11 44 1 146 14 122 28 158 87 225 64 71 62 91 -3 27 -36 -35 -47 -41 -54 -29
-5 9 -3 27 7 49 23 54 26 71 14 71 -20 0 -12 16 14 28 17 8 25 20 25 37 0 20
-5 25 -27 25 l-27 0 28 29 c24 25 26 31 15 55 -13 27 -24 33 -34 16 -11 -18
-25 -10 -25 15 0 22 -4 25 -36 25 -36 0 -36 0 -29 -36 6 -33 4 -35 -14 -29
-14 4 -23 0 -31 -14 -9 -17 -6 -25 20 -48 l31 -27 -26 -13 c-14 -8 -25 -17
-25 -22 0 -12 35 -41 49 -41 7 0 10 -7 7 -18 -4 -12 3 -27 19 -42 14 -13 25
-35 25 -48 0 -25 0 -25 -21 -6 -11 10 -57 67 -100 126 -116 157 -116 147 -2
-46 36 -60 69 -120 74 -133 6 -17 3 -55 -11 -125 -24 -113 -34 -138 -57 -138
-28 0 -255 123 -270 147 -14 22 -14 26 11 64 17 24 25 47 21 59 -4 13 0 20 14
25 21 6 36 38 26 55 -3 5 -16 10 -28 10 -21 0 -20 1 6 23 39 31 35 73 -6 70
-24 -2 -27 2 -27 28 0 28 -2 30 -32 27 -30 -3 -33 -6 -32 -36 2 -29 0 -32 -25
-30 -34 4 -41 -30 -11 -57 25 -23 25 -31 0 -38 -29 -7 -26 -45 5 -59 19 -8 24
-16 19 -31 -4 -14 0 -25 16 -37 16 -12 21 -24 18 -46 -3 -29 -4 -29 -76 46
-40 41 -98 104 -128 142 -48 58 -54 70 -44 87 6 12 27 28 46 36 24 10 34 20
32 32 -2 14 4 18 26 18 18 0 34 8 44 23 14 22 14 23 -6 29 -24 6 -20 23 6 23
24 0 38 12 47 38 5 19 3 25 -14 29 -23 6 -27 23 -11 39 7 7 2 18 -15 34 -20
19 -27 21 -40 10 -8 -7 -15 -21 -15 -31 0 -23 -13 -24 -30 -4 -27 33 -53 -23
-30 -65 12 -23 -4 -37 -24 -21 -9 7 -16 7 -24 -1 -17 -17 -15 -43 4 -59 14
-12 14 -14 -2 -26 -15 -11 -16 -17 -5 -39 12 -27 7 -64 -9 -64 -5 0 -22 16
-37 36 -52 68 -81 99 -88 93 -3 -4 34 -67 83 -140 50 -74 93 -144 97 -156 10
-34 -25 -30 -60 7 -19 20 -32 27 -39 20 -14 -14 -26 -12 -26 5 0 17 -35 55
-50 55 -5 0 -10 -9 -10 -19 0 -32 -18 -34 -32 -4 -10 21 -20 28 -43 28 -25 0
-30 -4 -27 -23 2 -20 -2 -23 -25 -20 -26 3 -28 0 -31 -34 -3 -31 0 -36 15 -32
10 2 24 0 32 -5 13 -8 13 -12 1 -26 -12 -14 -12 -18 1 -26 24 -15 46 -10 62
14 13 18 18 19 26 8 5 -8 7 -20 4 -28 -9 -23 55 -16 67 8 9 16 14 18 25 9 11
-9 21 -6 44 11 30 22 61 20 61 -4 0 -25 -65 -76 -168 -132 -95 -52 -107 -55
-148 -49 -37 5 -44 4 -44 -10 0 -20 -5 -20 -35 0 -19 12 -28 13 -45 4 -17 -9
-19 -14 -9 -26 16 -20 2 -31 -21 -16 -28 17 -44 15 -66 -9 -17 -19 -18 -21 -1
-30 23 -13 22 -25 -4 -32 -16 -4 -19 -10 -14 -29 4 -13 13 -29 20 -37 11 -11
16 -10 31 8 23 26 34 27 34 2 0 -44 54 -28 63 18 7 36 23 40 32 10 6 -18 9
-19 28 -6 14 9 22 25 22 43 0 22 5 29 20 29 13 0 21 8 23 21 2 12 11 28 20 37
32 27 236 111 287 118 46 6 53 4 84 -23 18 -16 53 -39 77 -51 46 -22 60 -43
22 -34 -78 20 -78 20 -78 1 -1 -16 -5 -14 -24 10 -29 35 -66 29 -66 -11 0 -25
-1 -25 -18 -10 -21 19 -49 22 -72 7 -12 -8 -13 -13 -2 -30 11 -18 10 -21 -14
-30 -21 -8 -25 -15 -20 -33 3 -12 6 -25 6 -29 0 -12 38 -10 45 2 11 18 25 10
25 -15 0 -25 13 -31 44 -19 9 3 16 11 16 18 0 6 5 18 10 26 9 13 13 11 29 -10
16 -20 22 -22 34 -11 9 7 17 22 19 34 2 16 9 21 25 20 17 -2 24 4 29 22 7 29
31 45 67 45 33 0 175 -94 189 -126 8 -18 9 -31 2 -42 -13 -22 -85 -57 -214
-103 -132 -48 -107 -49 67 -4 145 37 253 46 253 21 0 -17 -22 -26 -66 -26 -24
0 -34 -5 -34 -15 0 -18 -5 -19 -29 -3 -15 9 -26 9 -46 0 -26 -12 -26 -14 -11
-31 21 -23 11 -33 -20 -19 -19 9 -28 8 -44 -7 -24 -21 -26 -45 -5 -45 8 0 15
-5 15 -10 0 -6 -7 -13 -15 -16 -19 -8 -19 -34 -1 -60 14 -19 15 -18 41 6 l26
24 6 -22 c3 -12 11 -22 18 -22 21 0 45 29 45 54 0 32 11 39 27 18 12 -16 14
-15 33 7 15 17 18 27 10 35 -15 15 -12 24 10 31 12 4 20 15 20 29 0 29 44 71
62 60 7 -4 59 -43 115 -85 114 -87 195 -129 368 -189 216 -76 295 -127 295
-191 0 -31 -23 -59 -48 -59 -9 0 -82 31 -162 69 -245 116 -324 134 -605 135
-158 1 -272 -9 -348 -30 -12 -4 -45 21 -105 78 -49 46 -105 98 -126 117 -35
32 -38 37 -32 74 5 27 3 43 -6 48 -9 6 -9 13 1 33 19 35 8 60 -25 52 -25 -7
-26 -6 -19 32 5 29 2 42 -10 52 -13 11 -18 10 -34 -4 -18 -16 -19 -16 -29 13
-13 36 -18 37 -52 11 -20 -15 -23 -21 -12 -31 19 -20 14 -39 -9 -39 -17 0 -20
-4 -15 -22 3 -13 6 -26 6 -30 0 -5 9 -8 19 -8 26 0 51 -10 51 -21 0 -5 -7 -9
-15 -9 -16 0 -19 -9 -9 -34 4 -10 18 -16 41 -16 28 0 34 -3 29 -16 -4 -11 5
-20 34 -31 42 -17 56 -39 18 -28 -27 9 -22 3 54 -54 51 -38 118 -119 118 -143
0 -22 -70 5 -93 36 -5 7 -12 5 -21 -7 -14 -18 -15 -17 -31 12 -18 36 -54 42
-62 10 l-6 -20 -22 21 c-33 31 -71 24 -68 -12 1 -22 -3 -27 -25 -30 -23 -2
-27 -8 -27 -33 0 -28 2 -30 34 -27 29 2 33 0 28 -18 -3 -13 1 -24 14 -31 16
-8 24 -5 44 17 24 26 45 25 45 -2 0 -8 10 -14 25 -14 18 0 26 7 31 25 5 20 11
24 28 19 14 -3 28 2 40 15 23 25 66 28 66 6 0 -30 -89 -111 -180 -165 -49 -29
-90 -55 -90 -56 0 -11 117 47 234 116 60 35 95 50 121 50 48 0 45 -28 -5 -45
-24 -8 -34 -18 -32 -29 2 -12 -5 -16 -30 -16 -41 0 -70 -35 -38 -45 30 -10 24
-22 -14 -29 -33 -6 -46 -21 -46 -52 0 -8 9 -14 20 -14 23 0 24 -4 8 -29 -9
-15 -9 -23 1 -35 21 -25 50 -19 62 12 10 25 12 26 23 10 17 -23 33 -23 46 2 8
14 8 26 -1 41 -14 27 3 48 25 30 23 -20 42 23 25 56 -11 20 -11 26 0 32 8 6
10 19 6 44 -5 28 -3 39 13 55 38 38 232 68 260 40 33 -33 2 -77 -110 -157 -80
-57 -44 -48 45 12 46 30 108 67 138 82 49 25 60 27 134 22 99 -7 276 -62 360
-112 72 -43 158 -125 190 -180 24 -41 45 -124 45 -176 0 -16 -7 -46 -15 -66
-15 -35 -16 -35 -35 -18 -11 10 -32 39 -46 64 -42 72 -63 90 -135 111 -37 11
-76 28 -87 38 -11 9 -35 51 -52 92 -17 41 -33 76 -35 78 -2 3 -1 -28 2 -67 4
-49 2 -75 -7 -86 -20 -24 -33 -6 -26 40 4 34 2 44 -10 49 -15 6 -15 8 0 31 18
28 19 35 7 54 -6 10 -13 11 -29 2 -27 -15 -34 -1 -19 38 11 29 10 34 -8 47
-18 13 -21 12 -36 -7 l-16 -22 -11 32 c-13 36 -31 39 -57 11 -14 -16 -16 -23
-7 -32 18 -18 15 -28 -8 -28 -22 0 -26 -20 -10 -51 7 -12 21 -19 40 -19 35 0
39 -14 9 -30 -29 -16 -7 -40 38 -40 28 0 33 -3 29 -18 -5 -13 4 -22 34 -35 22
-9 40 -21 40 -27 0 -13 -4 -13 -70 5 -30 8 -67 15 -82 15 -22 0 -35 12 -68 60
-22 33 -43 60 -46 60 -2 0 3 -17 12 -37 30 -71 30 -73 -9 -73 -25 0 -39 6 -49
22 -13 20 -18 21 -31 9 -15 -11 -18 -10 -27 13 -5 14 -14 26 -19 26 -5 0 -16
3 -25 6 -10 4 -16 1 -16 -7 0 -8 -5 -21 -10 -29 -8 -13 -13 -11 -32 12 -18 21
-29 26 -46 22 -19 -5 -22 -11 -17 -34 5 -25 4 -26 -23 -22 -35 5 -45 -7 -36
-43 5 -22 11 -25 31 -20 21 5 24 3 21 -21 -2 -20 3 -28 20 -35 19 -7 28 -4 46
16 28 30 40 32 33 5 -3 -11 -2 -22 1 -24 16 -9 53 16 63 41 9 25 11 26 21 10
9 -17 12 -17 43 7 19 14 41 26 50 26 35 0 6 -27 -69 -63 -43 -21 -76 -40 -74
-42 4 -4 156 46 176 59 45 27 74 25 230 -20 179 -52 220 -70 203 -87 -9 -9
-21 -7 -51 11 -23 13 -41 18 -45 12 -9 -15 -25 -12 -25 5 0 16 -42 31 -59 21
-6 -4 -8 -13 -5 -20 9 -22 -16 -29 -36 -11 -10 9 -29 15 -42 13 -19 -2 -22 -8
-20 -30 2 -24 -1 -28 -23 -28 -30 0 -41 -20 -25 -49 8 -16 17 -20 35 -15 22 5
25 3 23 -17 -3 -20 2 -24 28 -27 24 -2 33 2 42 23 14 30 32 33 32 5 0 -38 45
-20 55 23 7 28 20 36 27 15 3 -7 18 1 38 21 26 24 41 31 64 29 30 -3 32 -6 47
-78 9 -41 24 -92 33 -114 9 -21 16 -50 14 -65 -3 -24 -8 -27 -63 -34 -33 -5
-89 -8 -125 -6 -128 5 -266 4 -332 -4 l-68 -8 0 31 c0 17 6 39 13 50 10 17 9
22 -3 30 -12 8 -11 13 9 34 28 30 22 56 -14 56 -29 0 -31 7 -10 34 29 39 7 90
-26 60 -15 -14 -17 -12 -23 21 -7 38 -12 40 -50 25 -22 -8 -25 -13 -19 -41 5
-28 4 -32 -12 -25 -45 17 -37 -47 9 -72 29 -15 30 -17 9 -20 -44 -7 -21 -62
25 -62 19 0 22 -4 17 -20 -5 -15 2 -27 24 -46 17 -14 31 -30 31 -35 0 -19 -38
-6 -179 62 -128 61 -150 75 -171 110 -29 47 -43 51 -28 8 6 -16 7 -33 4 -37
-12 -11 -40 13 -55 46 -11 24 -19 31 -33 26 -14 -4 -18 0 -18 22 0 15 -8 33
-17 40 -24 18 -31 17 -38 -6 -9 -30 -23 -24 -33 12 -10 40 -50 53 -59 19 -6
-23 -18 -27 -28 -11 -12 19 -42 10 -54 -16 -13 -30 -7 -44 20 -44 23 0 24 -8
4 -30 -14 -15 -13 -19 5 -35 17 -15 24 -16 46 -7 37 18 45 15 38 -13 -5 -21
-3 -25 17 -25 12 0 31 8 41 17 17 15 19 15 31 0 10 -14 17 -15 49 -6 20 7 43
9 52 6 20 -8 21 -37 2 -37 -8 0 -28 -14 -45 -31 -26 -25 -36 -29 -61 -24 -26
6 -30 4 -30 -15 0 -16 -4 -20 -15 -16 -8 3 -21 8 -28 11 -7 3 -21 -1 -32 -9
-16 -12 -18 -17 -7 -27 22 -23 15 -42 -15 -36 -51 10 -85 -29 -46 -52 17 -10
16 -12 -7 -30 -24 -19 -24 -20 -6 -40 23 -25 34 -26 57 -5 16 14 18 14 24 -5
14 -46 55 -15 55 43 0 38 0 39 20 21 29 -26 54 -4 45 42 -5 26 -3 33 9 33 10
0 18 13 22 39 3 21 9 43 13 48 9 16 83 53 104 53 31 0 227 -112 227 -130 0
-16 -45 -19 -69 -3 -22 14 -25 14 -36 -1 -11 -14 -14 -14 -30 5 -26 28 -59 21
-63 -14 -4 -32 -5 -32 -37 -11 -19 13 -27 13 -44 2 -23 -14 -26 -24 -11 -33
20 -12 10 -35 -15 -35 -20 0 -25 -5 -25 -24 0 -33 23 -50 49 -36 19 9 21 8 21
-15 0 -19 5 -25 23 -25 31 0 43 10 51 43 7 28 26 29 26 1 0 -15 9 -17 34 -8 9
4 16 18 16 33 0 34 9 44 26 30 10 -8 19 -1 39 31 23 36 30 41 57 38 17 -2 36
-11 42 -20 13 -22 -4 -41 -104 -119 -96 -74 -165 -138 -157 -146 4 -3 55 25
114 64 216 140 238 153 242 141 2 -6 -11 -23 -29 -38 -23 -18 -31 -32 -27 -44
5 -12 1 -16 -16 -16 -27 0 -41 -10 -50 -33 -5 -14 -2 -20 13 -24 29 -8 25 -19
-10 -32 -24 -8 -30 -16 -30 -40 0 -25 4 -31 21 -31 17 0 20 -4 15 -25 -5 -18
-1 -27 13 -35 34 -18 51 -12 58 20 6 32 13 36 30 19 6 -6 16 -8 22 -5 14 9 14
53 1 61 -5 3 -10 14 -10 24 0 14 6 17 25 13 21 -4 25 0 25 19 0 12 -7 31 -16
41 -13 14 -14 21 -5 32 10 12 9 20 -4 40 -20 30 -13 60 19 81 28 19 159 37
203 29 47 -9 62 -46 37 -92 -14 -25 -15 -35 -6 -41 9 -5 7 -12 -8 -26 -25 -23
-27 -67 -2 -64 32 3 34 -1 13 -34 -17 -29 -19 -36 -8 -52 11 -14 17 -16 35 -6
21 11 22 10 22 -25 0 -33 2 -36 23 -30 12 3 28 6 36 6 10 0 12 8 8 30 -6 27
-4 30 18 30 21 0 25 5 25 28 0 21 -7 32 -25 40 -30 14 -32 28 -6 35 30 8 15
47 -21 54 -22 4 -27 10 -23 24 5 13 -3 27 -24 45 -17 14 -31 32 -31 40 0 18 3
18 48 -5 20 -10 69 -24 107 -29 59 -10 74 -16 99 -43 l28 -32 -6 -196 c-16
-459 -19 -493 -45 -534 -13 -21 -53 -62 -90 -91 -36 -29 -92 -83 -124 -119
-32 -37 -76 -74 -100 -86 -23 -11 -112 -38 -197 -60 -190 -48 -242 -71 -346
-149 -142 -108 -140 -120 12 -56 185 78 271 107 297 100 17 -4 31 -22 50 -68
l27 -62 17 24 c36 54 80 91 131 110 30 11 91 43 136 70 100 61 178 89 275 97
65 5 76 4 87 -12 26 -35 16 -90 -28 -176 -33 -63 -40 -84 -32 -97 20 -31 44
-25 81 18 58 68 191 138 239 126 12 -3 55 -34 96 -67 72 -61 123 -90 183 -103
25 -6 14 8 -73 91 -56 54 -102 105 -102 114 0 20 31 33 125 55 129 29 127 29
222 -14 48 -22 102 -43 120 -47 46 -9 120 -66 159 -121 38 -53 97 -94 102 -71
1 7 -4 41 -12 75 -18 78 -13 96 32 118 33 15 39 15 93 0 32 -9 121 -45 198
-81 184 -85 262 -117 268 -111 17 17 -247 157 -492 261 -230 98 -299 146 -398
279 -77 104 -102 156 -134 274 -37 133 -38 304 -5 404 49 143 116 191 287 204
164 12 160 13 163 -18 2 -15 -4 -40 -12 -57 -20 -38 -20 -61 -1 -61 23 0 18
-16 -10 -34 -19 -12 -25 -25 -25 -51 0 -37 9 -42 41 -25 26 14 25 -3 -2 -40
-19 -26 -20 -31 -8 -59 15 -34 30 -39 49 -16 16 19 30 10 30 -20 0 -30 10 -36
50 -29 36 8 48 28 32 55 -19 30 -14 39 18 39 24 0 30 4 30 23 0 28 -8 39 -45
57 -34 18 -36 33 -5 38 33 5 24 72 -10 72 -36 0 -50 11 -44 35 4 18 -1 24 -24
34 -32 13 -58 60 -49 85 22 56 412 171 466 137 19 -12 -5 -46 -50 -70 -26 -14
-33 -24 -31 -41 3 -20 0 -22 -23 -17 -46 8 -88 -49 -45 -60 29 -8 24 -20 -11
-28 -19 -4 -34 -16 -40 -32 -14 -37 -11 -43 16 -43 25 0 35 -23 15 -35 -19
-12 -10 -34 21 -49 38 -19 45 -15 54 24 7 33 16 37 35 15 18 -21 29 -19 42 10
9 19 7 29 -7 51 -20 32 -6 56 20 34 14 -12 18 -11 26 1 14 22 11 51 -8 71 -15
17 -15 19 2 31 14 11 15 17 6 35 -15 28 -14 54 4 78 14 18 16 18 54 -22 31
-32 41 -52 46 -90 4 -27 15 -85 25 -129 36 -158 36 -168 -1 -209 -24 -28 -29
-40 -20 -49 17 -17 14 -24 -19 -36 -23 -7 -30 -16 -30 -35 0 -19 5 -26 18 -26
33 0 33 -13 2 -39 -27 -23 -30 -30 -24 -59 5 -25 11 -32 23 -27 9 4 22 9 30
13 11 4 13 0 8 -18 -8 -31 9 -50 44 -50 27 0 29 3 29 40 0 41 7 49 27 29 14
-14 29 -5 36 21 3 13 -4 31 -19 49 -30 36 -30 41 1 41 18 0 25 5 25 20 0 21
-33 60 -50 60 -6 0 -5 8 2 21 11 18 10 23 -9 39 -22 17 -23 25 -23 154 0 75 4
136 8 136 19 0 40 -38 46 -83 6 -41 10 -47 27 -42 22 7 25 -6 7 -34 -9 -15 -8
-24 6 -46 16 -25 19 -25 35 -11 26 24 34 19 27 -16 -6 -37 -1 -47 32 -66 20
-11 23 -10 33 15 l11 28 15 -23 c20 -29 34 -28 64 4 l24 26 -28 22 -28 23 23
15 c34 24 14 52 -41 56 -46 3 -48 7 -24 34 15 17 15 19 -3 33 -24 18 -56 19
-72 3 -10 -10 -14 -8 -18 10 -5 16 -14 22 -35 22 -36 0 -85 41 -76 64 7 19
115 73 165 82 51 10 90 -12 102 -57 8 -29 16 -39 31 -39 17 0 20 -4 14 -29
-10 -48 46 -86 59 -39 7 30 26 12 35 -34 5 -26 12 -34 33 -36 19 -2 27 2 31
20 l6 22 24 -22 c31 -29 43 -28 61 9 17 33 14 49 -9 49 -24 0 -27 20 -5 38
l21 17 -25 24 c-23 22 -28 23 -56 11 -37 -15 -46 -9 -28 19 11 18 11 23 -2 31
-22 14 -46 12 -60 -5 -17 -20 -40 -19 -40 3 0 15 -7 17 -41 14 -29 -3 -56 3
-90 19 l-49 22 -79 -26 c-43 -15 -89 -27 -103 -27 -24 0 -78 46 -78 67 0 19
58 36 101 29 35 -6 41 -4 46 14 7 25 7 25 42 -1 23 -17 32 -19 50 -10 24 13
26 22 9 39 -18 18 -1 27 28 13 32 -14 60 -6 75 21 9 17 8 23 -5 30 -22 12 -20
25 4 33 25 8 26 36 1 66 l-19 24 -24 -23 c-26 -23 -38 -21 -38 10 0 20 -21 23
-51 8 -12 -7 -19 -21 -19 -39 0 -39 -11 -46 -32 -19 -24 32 -52 14 -56 -36 -3
-28 -7 -36 -23 -36 -14 0 -21 -9 -26 -30 -3 -18 -18 -39 -36 -52 -29 -21 -30
-21 -43 -3 -30 41 -18 66 84 166 71 70 106 98 131 102 46 9 251 9 251 0 0 -5
12 -14 27 -20 22 -11 28 -10 38 4 11 15 14 13 29 -15 21 -42 66 -46 66 -7 0
32 7 31 42 -2 24 -23 31 -25 54 -15 22 11 25 17 19 42 -6 27 -4 29 21 27 31
-2 40 16 29 60 -6 25 -13 26 -59 8 -16 -7 -17 -4 -12 22 6 26 4 31 -14 36 -30
8 -45 0 -58 -29 -14 -29 -42 -32 -42 -5 0 11 -4 23 -10 26 -16 10 -50 -14 -61
-42 -8 -22 -12 -23 -25 -12 -14 12 -19 10 -38 -14 -21 -26 -25 -27 -119 -27
-57 0 -97 4 -97 10 0 24 102 147 135 163 28 13 35 22 30 37 -5 16 0 19 31 22
45 4 69 33 42 49 -27 15 -22 26 16 33 25 5 36 13 40 32 8 31 1 44 -25 44 -20
0 -26 15 -9 25 18 11 10 40 -16 58 -20 15 -28 16 -39 7 -8 -7 -15 -21 -15 -31
0 -24 -19 -34 -26 -15 -9 22 -30 20 -48 -5 -13 -19 -13 -26 -2 -48 20 -39 10
-56 -20 -36 -23 15 -25 15 -34 -10 -13 -34 -14 -31 13 -55 21 -20 21 -22 4
-31 -15 -9 -17 -18 -12 -53 l7 -42 -126 -122 c-133 -128 -204 -185 -274 -221
-31 -16 -42 -18 -42 -8 0 23 27 51 61 63 26 8 34 17 34 35 0 21 4 24 31 21 34
-3 60 18 50 43 -3 8 -13 15 -23 15 -17 1 -16 2 1 15 11 8 28 15 38 15 18 0 38
28 38 54 0 10 -9 16 -25 16 -29 0 -33 17 -7 36 16 13 15 16 -13 39 -16 14 -34
25 -38 25 -4 0 -15 -17 -23 -37 l-16 -37 -17 23 -17 22 -19 -21 c-16 -18 -17
-25 -7 -53 14 -37 3 -54 -27 -38 -19 10 -22 8 -31 -15 -8 -21 -7 -31 5 -44 19
-21 19 -30 0 -44 -13 -9 -13 -16 -3 -44 11 -28 10 -37 -7 -68 -26 -49 -58 -63
-85 -39 -36 33 -20 100 55 218 l46 72 -40 -43 c-22 -24 -60 -78 -85 -120 -24
-43 -60 -93 -80 -111 -40 -39 -47 -34 -15 10 16 23 18 33 9 44 -9 11 -6 16 12
26 47 24 54 69 11 69 l-27 0 27 28 c19 20 25 34 20 51 -5 19 -11 22 -35 17
-26 -5 -28 -4 -22 18 5 21 1 25 -26 31 -38 8 -52 -7 -43 -43 5 -20 2 -23 -18
-20 -20 2 -25 -2 -27 -24 -2 -19 3 -30 17 -38 27 -14 27 -40 0 -40 -28 0 -22
-42 9 -55 16 -7 21 -16 18 -30 -3 -12 3 -28 16 -42 11 -12 18 -28 15 -36 -5
-13 -247 -92 -320 -104 -71 -11 -97 47 -58 132 27 60 61 95 182 192 96 76 117
98 160 170 66 109 97 125 165 83 30 -19 33 -19 42 -4 8 15 11 14 27 -9 11 -17
26 -27 42 -27 22 0 24 3 19 25 -8 30 1 32 29 5 18 -17 27 -19 50 -10 22 8 26
15 21 34 -5 20 -2 25 16 28 18 2 23 9 23 33 0 28 -2 30 -37 28 -33 -2 -37 0
-35 20 3 33 -37 35 -59 3 -18 -29 -34 -34 -34 -11 0 9 -9 15 -25 15 -20 0 -29
-8 -39 -31 -8 -19 -16 -27 -20 -20 -11 18 -20 13 -39 -19 -12 -20 -26 -30 -43
-30 -13 0 -24 4 -24 8 0 5 17 33 38 63 55 79 59 87 22 54 -18 -16 -58 -64 -90
-106 -73 -95 -120 -136 -165 -145 -20 -3 -38 -4 -41 -1 -8 8 45 65 67 72 14 5
19 13 16 26 -4 16 0 19 28 19 21 0 35 6 39 16 10 25 7 34 -10 34 -22 0 -12 24
12 28 40 7 62 72 24 72 -16 0 -19 5 -14 28 4 20 0 30 -16 40 -25 15 -38 9 -51
-26 -10 -26 -11 -26 -25 -7 -13 18 -15 18 -31 2 -15 -14 -16 -22 -5 -49 14
-38 8 -50 -24 -42 -20 5 -24 2 -24 -15 0 -12 6 -30 13 -41 10 -17 9 -22 -2
-29 -12 -8 -12 -14 -2 -38 8 -21 9 -37 2 -56 -12 -31 -19 -32 -68 -12 -55 23
-56 18 -8 -26 25 -23 45 -48 45 -55 0 -29 -29 -60 -157 -169 -147 -124 -210
-171 -219 -162 -14 14 8 56 40 78 28 19 34 29 30 46 -5 19 -2 23 19 23 28 0
57 23 57 46 0 8 -9 14 -20 14 -31 0 -24 28 9 35 21 4 30 13 34 32 8 40 -2 55
-30 48 -23 -5 -24 -4 -18 27 5 29 2 35 -20 45 -36 16 -55 6 -55 -28 0 -32 -11
-37 -31 -13 -12 14 -14 14 -26 -2 -18 -24 -16 -54 3 -75 20 -23 9 -41 -20 -33
-18 4 -25 1 -30 -18 -4 -17 1 -29 21 -47 25 -22 26 -24 9 -37 -17 -12 -17 -14
-1 -42 13 -21 16 -39 11 -66 -9 -45 -31 -56 -59 -28 -30 30 -36 170 -12 279
25 114 92 317 115 345 25 33 100 64 185 78 71 11 224 64 308 107 37 18 75 26
159 33 61 5 135 15 165 21 l54 12 33 -32 c23 -22 36 -46 40 -73 6 -34 10 -39
27 -35 19 5 20 2 15 -29 -7 -37 7 -74 28 -74 8 0 16 7 20 15 10 28 26 15 26
-21 0 -59 47 -85 69 -37 l12 26 15 -21 c19 -28 31 -28 55 1 25 30 24 46 -6 57
-29 11 -32 25 -9 38 9 5 14 18 12 28 -3 15 -12 19 -48 19 -35 0 -45 4 -48 18
-2 9 1 17 7 17 19 0 12 29 -9 40 -15 8 -27 7 -49 -4 -27 -15 -29 -14 -34 6 -5
17 -11 20 -35 15 -29 -6 -92 23 -92 42 0 10 72 41 95 41 8 0 15 4 15 8 0 5
-37 1 -82 -9 -45 -10 -132 -21 -194 -25 -109 -6 -111 -6 -128 17 -9 13 -16 29
-16 36 0 18 64 17 100 -2 27 -14 30 -14 30 0 0 22 17 19 30 -6 8 -14 19 -19
38 -17 22 2 26 7 24 26 l-4 24 31 -23 c29 -21 31 -21 57 -5 19 13 23 21 15 29
-17 17 -13 27 9 27 26 0 34 19 21 54 -9 23 -14 25 -31 16 -24 -13 -44 -4 -36
15 6 16 -28 30 -45 20 -5 -4 -14 -18 -19 -31 -11 -29 -26 -31 -35 -4 -11 36
-48 22 -59 -22 -4 -20 -11 -26 -22 -21 -10 4 -24 -4 -37 -20 -12 -15 -33 -28
-47 -29 -23 -3 -25 0 -23 37 3 43 2 43 -35 -46 -33 -78 -108 -118 -259 -139
-70 -10 -103 -6 -103 10 0 10 18 16 72 25 20 4 39 13 42 21 4 11 10 12 25 4
24 -12 41 -13 60 -1 12 8 13 12 1 25 -18 22 -5 32 24 18 20 -9 27 -7 40 7 20
23 20 47 0 55 -14 5 -13 9 6 24 19 16 21 22 11 40 -14 26 -46 29 -59 6 -10
-19 -32 -11 -32 12 0 17 -5 17 -31 4 -12 -7 -19 -21 -19 -40 0 -34 -13 -45
-30 -25 -9 11 -17 12 -32 4 -16 -9 -19 -17 -13 -45 5 -30 3 -34 -15 -34 -15 0
-20 -6 -20 -29 0 -37 -45 -78 -67 -60 -8 7 -11 20 -7 33 13 40 107 167 163
218 111 101 215 125 408 94 54 -9 157 -20 228 -26 158 -11 228 -31 268 -73 26
-28 28 -37 23 -74 -4 -34 -2 -43 9 -43 20 0 19 -19 -1 -41 -30 -33 3 -78 34
-47 16 16 16 -2 0 -37 -10 -22 -9 -29 11 -48 21 -21 23 -21 35 -4 13 16 15 16
30 -8 16 -24 18 -25 46 -10 34 17 37 27 15 45 -21 18 -19 40 5 40 11 0 20 6
20 14 0 21 -28 46 -51 46 -10 0 -19 7 -19 15 0 8 7 15 15 15 18 0 18 5 5 31
-7 12 -21 19 -40 19 -23 0 -30 4 -30 20 0 14 -7 20 -24 20 -45 0 -69 62 -39
98 25 31 135 49 167 29 14 -10 29 -11 47 -5 16 5 36 5 52 -1 34 -13 36 -51 6
-100 -16 -27 -18 -36 -7 -43 10 -6 7 -13 -15 -29 -35 -27 -36 -59 -2 -59 30 0
33 -15 5 -30 -21 -11 -26 -45 -11 -69 8 -12 12 -12 25 -2 13 11 17 11 21 -3 3
-9 7 -23 10 -32 3 -10 14 -14 32 -12 25 3 28 7 26 36 -1 31 1 33 22 28 18 -5
25 -1 31 16 5 17 0 27 -20 43 -31 25 -34 45 -6 45 33 0 21 46 -16 60 -16 6
-21 15 -17 29 3 13 -2 23 -15 30 -24 13 -37 58 -21 77 16 19 -23 33 -133 47
-50 6 -82 14 -75 19 6 4 22 8 34 8 12 0 23 6 26 13 3 9 9 9 29 -2 20 -10 30
-11 48 -1 16 9 19 15 11 23 -20 20 -11 32 25 32 45 0 70 30 40 47 -18 10 -18
11 3 27 20 15 21 20 10 44 -15 32 -30 34 -55 6 l-18 -20 -8 21 c-5 15 -15 20
-30 18 -19 -2 -24 -10 -26 -40 -4 -43 -8 -45 -34 -22 -26 24 -52 1 -44 -39 5
-23 2 -30 -14 -34 -12 -3 -20 -14 -20 -27 0 -62 -139 -109 -224 -76 -35 13
-33 30 10 71 19 18 49 55 66 82 19 30 39 49 57 53 84 19 117 29 219 66 61 23
112 45 112 50 0 12 -14 10 -61 -12 -85 -38 -103 -20 -40 40 28 27 36 41 29 48
-12 12 -3 18 36 24 10 2 23 14 27 26 7 20 5 25 -11 29 -26 7 -25 20 3 29 27 8
37 22 37 52 0 17 -6 22 -25 22 -22 0 -25 3 -19 24 4 18 1 27 -14 35 -36 19
-52 14 -52 -18 0 -36 -15 -48 -28 -24 -9 14 -13 15 -26 4 -20 -17 -21 -45 -1
-61 23 -19 18 -40 -9 -40 -35 0 -40 -27 -10 -55 22 -21 23 -24 8 -33 -15 -8
-15 -11 1 -35 36 -56 0 -105 -87 -121 -103 -19 -105 54 -7 253 36 72 63 131
60 131 -2 0 -13 -8 -24 -17 -16 -14 -19 -15 -15 -3 3 8 11 32 19 53 12 33 11
39 -1 47 -13 8 -11 12 8 25 12 9 22 27 22 41 0 19 -5 24 -27 24 l-26 0 21 23
c26 27 28 46 8 73 -12 15 -17 17 -27 7 -19 -18 -29 -16 -29 6 0 26 -15 34 -47
26 -23 -5 -24 -9 -18 -41 6 -32 4 -35 -14 -29 -41 13 -38 -42 4 -65 30 -16 32
-26 5 -33 -32 -8 -26 -47 10 -60 21 -8 28 -16 25 -27 -3 -11 4 -21 20 -30 28
-15 40 -48 31 -84 -6 -26 -151 -294 -167 -311 -5 -5 -9 11 -9 43 0 42 -3 50
-15 46 -18 -7 -20 17 -4 33 15 15 3 63 -16 63 -8 0 -15 -4 -15 -10 0 -5 -5
-10 -10 -10 -6 0 -8 15 -4 38 5 30 2 41 -14 56 -20 17 -21 17 -34 -3 l-13 -21
-17 22 c-14 19 -19 21 -42 10 -29 -13 -33 -33 -11 -52 21 -17 19 -30 -5 -30
-22 0 -25 -12 -10 -41 7 -12 21 -19 40 -19 33 0 39 -16 14 -35 -15 -10 -15
-13 1 -29 11 -11 28 -16 42 -13 17 3 23 0 23 -13 0 -11 10 -20 29 -23 16 -3
36 -13 45 -23 16 -15 15 -20 -12 -68 -62 -109 -157 -148 -316 -128 -126 16
-198 38 -194 60 2 13 15 18 50 20 37 2 47 7 52 25 4 17 8 19 18 9 6 -6 22 -12
34 -12 26 0 50 25 34 35 -24 15 -9 32 26 31 47 -1 69 26 39 48 -20 15 -20 15
0 29 17 13 18 18 7 41 -14 31 -37 34 -54 6 -15 -24 -28 -26 -28 -5 0 21 -27
30 -45 15 -8 -7 -15 -25 -15 -41 0 -34 -15 -46 -28 -22 -16 27 -45 -3 -39 -40
3 -23 0 -31 -15 -35 -12 -3 -18 -14 -18 -31 0 -29 -6 -39 -33 -60 -16 -12 -21
-11 -47 14 -17 16 -30 38 -30 49 0 11 17 61 37 110 31 74 50 104 108 166 39
41 82 94 95 118 31 55 72 70 124 45 32 -15 38 -15 46 -3 8 13 12 11 25 -7 11
-15 26 -23 46 -23 27 0 29 2 23 26 -7 29 1 28 39 -4 14 -12 22 -13 42 -4 26
12 32 27 15 37 -17 10 -11 25 9 25 26 0 34 15 26 47 -5 23 -9 24 -40 19 -33
-6 -35 -5 -35 19 0 22 -4 26 -22 23 -13 -2 -29 -15 -36 -30 -16 -33 -28 -36
-37 -7 -11 33 -47 21 -57 -19 -8 -29 -11 -32 -25 -20 -13 10 -17 10 -20 1 -14
-40 -83 -81 -83 -49 0 8 15 49 34 90 19 41 32 83 30 93 -3 10 7 36 21 57 19
29 23 41 15 51 -9 11 -6 16 12 26 47 25 54 69 11 69 l-28 0 29 23 c24 20 28
28 22 51 -6 24 -11 27 -31 22 -22 -6 -25 -3 -25 19 0 18 -7 26 -24 31 -35 8
-49 -4 -42 -37 5 -25 3 -27 -22 -26 -35 3 -44 -35 -13 -55 27 -16 27 -38 1
-38 -31 0 -27 -47 5 -62 19 -8 24 -16 19 -31 -4 -12 2 -26 16 -39 32 -30 22
-69 -50 -214 -56 -114 -119 -195 -174 -226 -22 -12 -31 31 -16 78 10 29 10 38
-1 45 -11 6 -9 13 10 33 31 33 25 62 -13 58 -29 -3 -29 4 1 40 12 13 12 21 2
40 -17 33 -17 33 -39 13 -16 -14 -20 -15 -24 -4 -14 48 -14 48 -43 40 -27 -8
-32 -21 -22 -61 3 -10 -3 -15 -16 -15 -34 0 -31 -41 4 -60 34 -17 39 -30 15
-39 -9 -3 -14 -15 -12 -28 2 -17 11 -24 31 -26 23 -3 28 -8 24 -22 -4 -14 5
-25 29 -39 47 -28 46 -66 -7 -156 -22 -39 -48 -78 -56 -87 -22 -25 -50 -22
-67 5 -28 42 -48 220 -49 432 -1 182 1 206 22 266 12 37 37 84 55 105 29 34
35 37 50 25 10 -9 16 -29 16 -57 0 -32 4 -44 14 -44 23 0 29 -20 13 -38 -10
-12 -12 -24 -6 -39 9 -26 19 -29 37 -11 18 18 27 1 14 -27 -10 -21 -8 -28 10
-45 27 -25 34 -25 47 -2 9 16 11 16 24 -2 16 -21 45 -18 61 6 8 13 6 21 -7 36
-22 24 -21 32 3 32 22 0 25 12 10 41 -7 12 -21 19 -40 19 -35 0 -47 15 -23 29
17 9 16 11 -2 31 -13 15 -26 19 -42 15 -16 -4 -23 -1 -23 9 0 15 -21 26 -49
26 -10 0 -26 9 -37 21 -18 20 -18 21 1 36 11 8 65 40 120 71 55 31 93 58 84
60 -9 2 -69 -22 -133 -52 -151 -71 -156 -73 -156 -46 0 13 13 28 35 42 27 15
34 25 30 39 -5 16 -1 19 24 19 20 0 34 7 41 19 14 27 13 30 -12 40 -22 9 -22
9 -3 16 40 13 50 22 53 49 3 22 0 26 -22 26 -30 0 -31 3 -14 30 11 16 9 22 -7
34 -31 23 -55 20 -55 -7 0 -33 -10 -40 -31 -21 -16 14 -18 13 -33 -7 -14 -20
-14 -26 -1 -46 22 -33 18 -44 -12 -41 -34 4 -43 -24 -17 -53 14 -15 15 -21 4
-34 -11 -13 -11 -20 0 -39 13 -25 5 -86 -11 -86 -19 0 -47 63 -74 168 -15 59
-30 109 -33 112 -6 6 5 -106 14 -138 6 -22 5 -23 -15 -10 -12 7 -27 29 -33 49
-8 30 -14 35 -31 31 -18 -4 -19 -2 -13 23 5 19 2 33 -10 46 -22 24 -31 24 -39
-1 -9 -28 -28 -14 -21 15 6 24 -6 38 -40 49 -18 5 -23 2 -28 -20 -7 -25 -8
-26 -26 -9 -19 17 -21 17 -40 0 -28 -25 -26 -53 5 -61 30 -7 31 -12 8 -30 -17
-12 -17 -14 3 -34 18 -18 25 -20 42 -11 34 18 44 14 37 -18 -5 -23 -2 -29 14
-34 11 -3 28 1 38 9 24 18 33 17 33 -2 0 -13 7 -15 40 -9 33 6 43 3 64 -18 14
-14 34 -56 46 -96 18 -59 20 -76 10 -105 -18 -56 -33 -63 -93 -42 -78 27 -242
122 -271 156 -16 19 -30 28 -40 24 -11 -4 -16 0 -16 14 0 24 -25 52 -46 52 -8
0 -14 -7 -14 -15 0 -26 -18 -16 -29 15 -8 24 -16 30 -40 30 -26 0 -31 -4 -31
-25 0 -23 -2 -25 -22 -14 -18 10 -24 8 -35 -7 -22 -29 -12 -58 20 -62 30 -4
36 -17 11 -26 -15 -6 -15 -8 1 -26 22 -24 38 -25 55 -5 21 25 43 19 36 -9 -9
-35 28 -46 58 -17 20 19 25 20 35 7 11 -14 16 -13 37 1 31 20 38 17 202 -84
l122 -76 0 -82 c0 -109 -8 -149 -26 -134 -8 6 -19 29 -24 50 -7 24 -17 39 -27
39 -11 0 -14 7 -10 25 3 16 -2 34 -14 48 -18 22 -18 22 -33 2 -15 -19 -15 -19
-16 12 0 26 -6 36 -31 48 -29 16 -31 15 -36 -4 -6 -24 -14 -26 -31 -9 -9 9
-17 8 -37 -2 -32 -17 -32 -35 0 -56 24 -15 24 -17 8 -30 -29 -21 -4 -50 41
-46 26 2 36 -1 36 -12 0 -8 -6 -16 -12 -19 -10 -3 -10 -7 1 -20 16 -20 42 -22
60 -4 10 10 15 9 25 -5 8 -11 26 -18 48 -18 60 0 71 -23 79 -168 4 -70 12
-167 18 -217 21 -173 11 -215 -69 -305 -32 -37 -41 -42 -49 -30 -6 8 -8 32 -4
54 4 25 2 41 -7 46 -9 6 -8 13 4 32 22 34 11 61 -22 53 -21 -5 -23 -3 -17 12
15 35 15 58 0 77 -14 18 -16 18 -33 3 -24 -22 -32 -21 -32 2 0 24 -17 30 -47
17 -27 -13 -29 -32 -6 -58 15 -17 15 -18 -5 -18 -46 0 -39 -54 8 -64 31 -6 43
-36 15 -36 -8 0 -15 -6 -15 -13 0 -21 22 -37 52 -37 21 0 28 -5 28 -20 0 -18
10 -25 32 -21 4 0 15 -11 24 -24 22 -34 17 -43 -91 -167 -50 -57 -121 -142
-158 -190 -72 -93 -148 -151 -169 -130 -8 8 -1 21 28 47 21 20 39 43 39 53 0
10 10 18 25 21 41 5 58 51 19 51 -30 0 -18 24 14 28 19 2 29 11 33 27 8 31 -3
48 -27 42 -17 -5 -19 -1 -13 28 5 29 3 33 -21 39 -33 8 -45 1 -45 -30 0 -26
-9 -31 -28 -12 -10 9 -16 8 -29 -5 -16 -16 -16 -19 0 -46 23 -39 22 -41 -13
-41 -25 0 -30 -4 -30 -24 0 -13 10 -31 23 -40 20 -14 21 -16 5 -26 -17 -10
-17 -13 -2 -42 21 -41 6 -78 -32 -78 -54 0 -209 143 -245 226 -21 45 -19 97 3
110 16 10 127 183 164 255 57 115 106 134 190 75 127 -89 156 -108 159 -104 2
1 -36 39 -85 83 -81 74 -87 81 -72 98 9 11 30 17 54 17 31 0 41 4 45 20 6 22
18 26 28 10 9 -15 41 -12 55 5 10 12 10 19 2 27 -20 20 -14 25 24 24 47 -1 69
27 39 50 -20 15 -20 15 -1 29 16 12 18 19 8 40 -14 30 -37 32 -54 5 -15 -24
-28 -26 -28 -5 0 21 -27 30 -45 15 -8 -7 -15 -25 -15 -41 0 -34 -15 -46 -28
-22 -9 15 -12 15 -27 3 -12 -10 -15 -23 -11 -46 5 -26 3 -32 -14 -37 -14 -4
-20 -13 -20 -35 0 -48 -52 -80 -79 -48 -9 10 0 37 39 117 45 93 99 263 87 275
-2 3 -15 -21 -27 -53 -29 -73 -44 -90 -37 -43 3 19 8 45 12 58 6 17 3 22 -9
22 -22 0 -20 13 4 28 12 7 20 23 20 38 0 23 -4 26 -25 22 -29 -6 -31 0 -10 28
19 25 19 48 0 64 -12 10 -19 10 -27 2 -18 -18 -26 -15 -30 11 -4 26 -35 34
-62 14 -18 -13 -18 -15 -1 -40 17 -27 17 -27 -9 -27 -21 0 -26 -5 -26 -25 0
-18 7 -28 24 -35 34 -13 42 -30 17 -37 -37 -10 -23 -47 22 -58 21 -6 26 -12
22 -25 -4 -13 1 -19 18 -24 25 -6 47 -43 47 -80 0 -26 -37 -87 -119 -195 -32
-42 -70 -93 -85 -114 -34 -47 -44 -41 -26 14 13 37 12 42 -4 51 -17 10 -17 12
8 32 19 15 24 27 20 43 -5 19 -11 22 -32 16 l-26 -6 17 26 c21 33 22 51 1 68
-12 10 -20 10 -34 1 -15 -9 -19 -7 -24 14 -5 17 -13 24 -30 24 -30 0 -48 -21
-36 -40 16 -24 11 -40 -10 -40 -34 0 -26 -46 10 -59 34 -11 39 -30 10 -38 -36
-10 -19 -46 25 -55 12 -2 20 -11 20 -22 0 -10 9 -22 20 -26 54 -20 56 -72 6
-152 -21 -34 -44 -53 -85 -73 l-57 -28 -26 24 c-25 24 -25 25 -20 139 4 63 15
169 26 235 25 149 26 173 1 120 -10 -22 -19 -32 -19 -22 -1 11 -9 17 -26 17
-22 0 -24 3 -19 30 5 25 3 31 -17 39 -27 10 -49 -8 -49 -41 0 -16 -3 -16 -21
-6 -17 11 -22 10 -35 -6 -12 -17 -12 -23 1 -42 21 -33 19 -41 -15 -46 l-30 -5
0 52 c0 67 18 164 35 192 9 14 29 23 57 28 96 15 135 34 192 96 31 33 70 81
87 107 18 26 57 78 87 115 29 38 52 71 49 73 -2 3 -63 -56 -133 -131 -130
-137 -169 -169 -222 -185 -42 -11 -59 2 -44 34 7 17 24 29 52 36 30 8 40 15
36 26 -4 10 3 14 28 14 46 0 65 24 41 50 -18 20 -17 20 13 20 23 0 36 7 48 26
18 26 14 35 -20 47 -5 2 -3 12 4 23 11 18 10 24 -10 44 l-23 23 -23 -29 c-23
-28 -24 -28 -38 -9 -12 17 -16 17 -31 5 -13 -11 -15 -23 -11 -53 6 -39 6 -39
-23 -32 -24 5 -30 3 -36 -15 -4 -12 -2 -27 4 -33 16 -16 13 -37 -4 -37 -13 0
-15 -7 -10 -34 7 -34 -7 -76 -25 -76 -33 0 11 254 52 297 11 12 53 35 92 49
106 41 199 84 193 91 -3 3 -20 0 -38 -6 -44 -15 -49 -14 -49 10 0 17 4 20 22
16 24 -7 58 8 58 25 0 6 -8 17 -17 24 -16 12 -15 13 10 14 27 0 67 30 67 51 0
6 -9 13 -20 16 -23 6 -24 7 -8 33 10 15 9 23 -6 39 -25 28 -40 26 -55 -5 -11
-26 -12 -26 -31 -9 -16 15 -22 16 -35 5 -12 -10 -15 -23 -10 -52 6 -36 -5 -52
-20 -28 -10 16 -23 12 -35 -11 -9 -16 -8 -26 5 -45 16 -24 15 -26 -4 -31 -23
-6 -24 -8 -12 -38 19 -46 -38 -95 -110 -95 -34 0 -52 24 -85 116 -29 80 -31
125 -4 149 14 13 17 22 10 35 -7 13 -5 21 9 31 11 8 22 24 26 37 5 19 3 22
-19 22 -32 0 -34 22 -4 42 20 14 21 18 10 43 -10 21 -16 25 -24 17 -20 -20
-28 -13 -28 23 0 36 -7 40 -53 28z m339 -488 c-11 -8 -29 -15 -40 -14 -17 0
-15 3 9 14 39 18 55 18 31 0z m-109 -790 c-7 -17 -47 -21 -47 -5 0 11 41 31
49 24 2 -2 1 -10 -2 -19z m-169 -72 c-9 -11 -8 -21 6 -44 12 -21 14 -34 7 -46
-8 -16 -11 -14 -21 12 -6 17 -14 53 -17 80 l-6 50 21 -19 c17 -15 19 -22 10
-33z m153 -19 c-16 -62 -47 -121 -69 -133 -24 -13 -62 12 -62 39 0 10 16 32
35 49 21 18 35 39 33 49 -2 12 5 18 25 20 16 2 31 10 34 18 12 32 15 2 4 -42z"/>
</g>
</svg>
