<?xml version="1.0" standalone="no"?>
<!DOCTYPE svg PUBLIC "-//W3C//DTD SVG 20010904//EN"
 "http://www.w3.org/TR/2001/REC-SVG-20010904/DTD/svg10.dtd">
<svg version="1.0" xmlns="http://www.w3.org/2000/svg"
 width="536.000000pt" height="101.000000pt" viewBox="0 0 536.000000 101.000000"
 preserveAspectRatio="xMidYMid meet">

<g transform="translate(0.000000,101.000000) scale(0.100000,-0.100000)"
fill="white" stroke="none">
<path d="M474 786 c-3 -8 -4 -23 -2 -33 3 -16 17 -18 141 -21 l138 -3 -3 33
-3 33 -133 3 c-109 2 -133 0 -138 -12z"/>
<path d="M955 787 c-50 -17 -86 -48 -106 -91 -49 -107 0 -226 108 -263 37 -13
43 -9 43 29 0 22 -7 31 -33 42 -35 14 -67 65 -67 106 0 40 32 91 67 108 26 12
33 22 33 43 0 35 -7 39 -45 26z"/>
<path d="M1041 791 c-21 -13 -8 -55 21 -69 40 -19 68 -64 68 -109 0 -49 -32
-101 -70 -115 -24 -8 -30 -16 -30 -38 0 -37 18 -42 66 -20 72 33 104 85 104
171 0 85 -36 142 -111 173 -19 8 -41 11 -48 7z"/>
<path d="M1314 787 c-3 -8 -4 -36 -2 -63 3 -47 4 -49 36 -52 l33 -3 -3 63 c-3
60 -4 63 -31 66 -17 2 -29 -2 -33 -11z"/>
<path d="M1583 793 c-12 -2 -36 -17 -53 -33 -43 -40 -43 -98 0 -134 28 -23
114 -56 146 -56 6 0 22 -8 35 -19 21 -17 22 -21 9 -36 -8 -9 -24 -21 -37 -26
-24 -9 -32 -52 -12 -64 20 -13 99 25 114 55 39 76 3 129 -109 161 -39 11 -78
24 -86 28 -27 15 -23 39 10 56 25 13 31 22 28 42 -3 28 -11 33 -45 26z"/>
<path d="M1667 793 c-4 -3 -7 -19 -7 -34 0 -19 6 -30 21 -34 11 -4 25 -18 31
-31 9 -19 19 -24 46 -24 33 0 34 1 28 32 -8 39 -31 67 -73 84 -37 16 -38 16
-46 7z"/>
<path d="M2000 784 c-74 -32 -111 -88 -112 -168 -1 -88 43 -154 123 -185 56
-21 68 38 15 70 -47 27 -66 60 -66 113 0 33 7 52 26 75 14 17 32 31 39 31 22
0 38 28 31 55 -7 29 -9 29 -56 9z"/>
<path d="M2097 793 c-4 -3 -7 -19 -7 -33 0 -21 7 -31 30 -40 41 -17 64 -56 64
-112 0 -51 -27 -91 -71 -109 -17 -6 -23 -17 -23 -37 0 -38 6 -42 43 -29 109
37 157 158 107 263 -27 54 -122 119 -143 97z"/>
<path d="M2459 753 c-79 -183 -91 -216 -77 -224 16 -11 39 -11 54 -1 7 4 26
42 44 85 18 42 34 76 36 75 5 -6 74 -172 74 -180 0 -4 -52 -8 -115 -8 -111 0
-115 -1 -131 -25 -33 -51 -20 -55 163 -55 92 0 174 4 182 9 11 7 -1 43 -62
187 l-75 179 -36 3 c-35 3 -37 1 -57 -45z"/>
<path d="M2797 793 c-4 -3 -7 -19 -7 -35 l0 -28 89 0 c49 0 101 -4 114 -9 30
-12 39 -43 20 -70 -12 -19 -25 -21 -103 -21 -48 0 -95 -3 -104 -6 -13 -5 -16
-24 -16 -100 l0 -94 35 0 35 0 0 65 0 65 44 0 c44 0 45 -1 85 -65 38 -60 44
-65 76 -65 44 0 44 10 0 80 l-34 55 29 26 c39 36 48 87 24 136 -28 57 -69 73
-185 73 -53 0 -99 -3 -102 -7z"/>
<path d="M3217 794 c-4 -4 -7 -20 -7 -36 l0 -28 141 0 140 0 -3 33 -3 32 -131
3 c-71 1 -133 -1 -137 -4z"/>
<path d="M3784 786 c-6 -17 155 -236 173 -236 7 0 31 24 54 53 23 28 45 54 50
55 5 2 9 -48 9 -112 l0 -116 35 0 35 0 -2 183 -3 182 -32 3 c-29 3 -36 -3 -88
-72 l-57 -76 -51 68 c-28 37 -55 70 -61 74 -18 13 -56 9 -62 -6z"/>
<path d="M4277 793 c-4 -3 -7 -19 -7 -35 l0 -28 73 0 c96 0 143 -14 161 -48
28 -53 24 -111 -10 -151 -25 -30 -28 -31 -112 -31 -48 0 -93 -4 -100 -9 -8 -5
-12 -21 -10 -37 l3 -29 95 1 c124 0 168 22 207 101 21 45 25 62 20 105 -14
114 -87 168 -228 168 -47 0 -89 -3 -92 -7z"/>
<path d="M1317 644 c-4 -4 -7 -53 -7 -110 0 -108 7 -123 52 -108 17 5 18 15
16 112 -3 106 -3 107 -28 110 -14 2 -29 0 -33 -4z"/>
<path d="M3217 644 c-4 -4 -7 -20 -7 -36 l0 -28 131 0 130 0 -3 33 -3 32 -121
3 c-66 1 -123 -1 -127 -4z"/>
<path d="M477 633 c-4 -3 -7 -50 -7 -104 0 -103 7 -118 51 -104 16 5 19 17 19
75 l0 69 93 3 92 3 3 33 3 32 -124 0 c-68 0 -127 -3 -130 -7z"/>
<path d="M1494 545 c-17 -44 41 -110 101 -117 27 -3 30 0 30 27 0 21 -7 33
-24 42 -14 6 -31 23 -38 37 -15 29 -60 36 -69 11z"/>
<path d="M3780 490 l0 -61 33 3 c32 3 32 3 32 58 0 55 0 55 -32 58 l-33 3 0
-61z"/>
<path d="M3584 496 c-3 -8 -4 -25 -2 -38 2 -19 10 -24 41 -26 l37 -3 0 40 c0
40 -1 41 -35 41 -22 0 -38 -6 -41 -14z"/>
<path d="M3223 494 c-19 -8 -16 -61 3 -68 24 -9 237 -7 252 3 8 5 12 21 10 37
l-3 29 -125 2 c-69 1 -131 -1 -137 -3z"/>
</g>
</svg>
