<?xml version="1.0" standalone="no"?>
<!DOCTYPE svg PUBLIC "-//W3C//DTD SVG 20010904//EN"
 "http://www.w3.org/TR/2001/REC-SVG-20010904/DTD/svg10.dtd">
<svg version="1.0" xmlns="http://www.w3.org/2000/svg"
 width="1406.000000pt" height="223.000000pt" viewBox="0 0 1406.000000 223.000000"
 preserveAspectRatio="xMidYMid meet">

<g transform="translate(0.000000,223.000000) scale(0.100000,-0.100000)"
fill="white" stroke="none">
<path d="M626 1694 c-24 -23 -23 -172 2 -190 13 -11 97 -13 400 -14 450 0 422
-7 422 110 0 117 29 110 -424 110 -336 0 -387 -2 -400 -16z"/>
<path d="M2063 1686 c-95 -31 -148 -63 -221 -134 -183 -181 -216 -508 -73
-731 75 -117 237 -226 353 -238 50 -5 57 -3 67 16 7 12 11 54 9 98 -3 86 5 77
-108 126 -68 30 -122 83 -157 156 -25 50 -28 67 -28 161 0 93 3 111 27 162 40
86 109 150 190 177 37 12 69 29 72 37 3 9 6 48 6 88 0 58 -4 76 -18 89 -24 22
-32 21 -119 -7z"/>
<path d="M2316 1697 c-14 -10 -16 -26 -14 -101 3 -98 0 -92 83 -122 60 -21
132 -86 168 -152 74 -137 43 -350 -66 -449 -40 -36 -109 -72 -139 -73 -36 0
-48 -28 -48 -114 0 -100 9 -112 74 -103 111 16 246 99 325 201 167 216 154
549 -30 750 -69 76 -124 112 -222 147 -93 32 -106 34 -131 16z"/>
<path d="M3156 1694 c-25 -24 -28 -51 -24 -204 4 -171 3 -170 119 -170 59 0
80 4 90 17 10 11 15 56 17 155 6 208 1 218 -113 218 -54 0 -78 -4 -89 -16z"/>
<path d="M3957 1694 c-161 -39 -260 -161 -259 -320 1 -79 26 -138 84 -190 57
-51 141 -87 319 -134 85 -22 183 -55 219 -73 61 -30 65 -34 68 -70 5 -53 -43
-100 -117 -116 -78 -17 -81 -21 -81 -117 0 -80 1 -85 25 -96 29 -13 99 -1 190
33 83 31 167 115 189 189 20 67 20 132 1 196 -35 120 -143 186 -422 259 -95
24 -185 51 -200 59 -48 24 -66 51 -58 85 8 37 40 64 103 87 65 24 72 36 72
119 0 106 -17 117 -133 89z"/>
<path d="M5234 1681 c-231 -80 -374 -286 -374 -541 0 -246 144 -456 366 -536
81 -30 129 -31 144 -5 15 28 13 166 -3 179 -7 6 -39 20 -72 33 -153 57 -235
214 -207 394 13 84 29 120 79 182 32 39 137 103 169 103 32 0 44 31 44 109 0
63 -4 81 -18 94 -25 22 -33 22 -128 -12z"/>
<path d="M5495 1694 c-12 -13 -15 -34 -13 -102 3 -93 0 -89 83 -118 61 -21
139 -92 171 -156 34 -67 48 -170 34 -249 -14 -76 -38 -126 -88 -181 -35 -39
-119 -88 -153 -88 -37 0 -50 -33 -47 -120 4 -102 11 -110 95 -92 90 19 180 69
254 143 172 171 217 448 109 674 -36 75 -128 179 -198 224 -45 28 -184 81
-216 81 -8 0 -22 -7 -31 -16z"/>
<path d="M6337 1692 c-13 -14 -17 -38 -17 -95 0 -112 -14 -107 315 -107 261 0
272 -1 315 -22 104 -54 107 -199 4 -252 -36 -19 -62 -21 -327 -26 -241 -4
-289 -7 -297 -20 -6 -8 -10 -133 -10 -287 0 -270 0 -272 22 -287 33 -24 139
-21 169 3 23 19 24 25 29 198 l5 178 124 3 c78 2 128 -1 136 -8 7 -6 62 -88
121 -183 59 -95 116 -180 127 -190 15 -13 37 -17 96 -17 85 0 121 16 121 53 0
13 -52 103 -115 200 -63 98 -115 179 -115 181 0 2 24 18 53 34 125 71 180 209
148 374 -15 73 -38 116 -95 176 -91 97 -161 112 -522 112 -250 0 -272 -1 -287
-18z"/>
<path d="M7589 1689 c-20 -20 -20 -27 -17 -377 4 -333 6 -361 26 -422 52 -158
170 -270 326 -312 73 -19 81 -10 81 103 l0 94 -52 25 c-63 30 -98 62 -126 115
-21 38 -22 56 -28 400 -3 198 -6 361 -7 362 -1 1 -9 9 -18 17 -11 12 -36 16
-90 16 -62 0 -77 -3 -95 -21z"/>
<path d="M8351 1693 c-20 -18 -21 -27 -23 -373 -3 -344 -4 -356 -25 -396 -31
-57 -78 -103 -132 -126 -25 -11 -49 -25 -53 -31 -4 -7 -8 -46 -8 -88 0 -63 3
-79 19 -93 27 -24 82 -14 169 29 77 39 136 95 186 178 60 100 66 152 66 540 0
403 7 377 -107 377 -53 0 -76 -4 -92 -17z"/>
<path d="M8940 1690 c-19 -19 -20 -33 -20 -540 l0 -521 25 -24 c20 -21 34 -25
87 -25 41 0 71 5 86 16 l22 15 0 533 c0 619 10 566 -108 566 -59 0 -76 -4 -92
-20z"/>
<path d="M10000 1690 c-11 -11 -20 -27 -20 -35 0 -19 514 -701 535 -709 31
-12 63 19 194 190 73 96 137 174 142 174 5 0 9 -157 9 -349 l0 -350 22 -15
c15 -11 45 -16 86 -16 54 0 67 4 88 25 l25 25 -3 526 c-3 612 9 554 -124 554
-98 0 -76 20 -278 -253 -76 -103 -142 -187 -146 -185 -5 2 -82 100 -172 218
l-163 215 -87 3 c-77 2 -90 0 -108 -18z"/>
<path d="M11477 1692 c-13 -14 -17 -38 -17 -94 0 -116 -32 -108 427 -108 457
0 423 -9 423 112 0 116 32 108 -427 108 -365 0 -391 -1 -406 -18z"/>
<path d="M12640 1690 c-19 -19 -20 -33 -20 -345 0 -417 11 -478 107 -606 48
-64 117 -114 197 -144 121 -46 139 -33 134 98 l-3 82 -52 25 c-68 33 -106 71
-134 134 -23 49 -23 62 -27 396 -3 295 -6 348 -19 363 -24 26 -155 25 -183 -3z"/>
<path d="M13401 1693 c-20 -18 -21 -27 -23 -368 -3 -331 -4 -352 -24 -395 -27
-59 -73 -104 -132 -130 -25 -11 -50 -26 -54 -33 -4 -7 -8 -46 -8 -88 0 -63 3
-79 20 -94 18 -16 26 -17 74 -6 157 35 299 187 335 359 7 33 11 184 11 396 0
402 7 376 -107 376 -53 0 -76 -4 -92 -17z"/>
<path d="M4202 1687 c-9 -10 -12 -42 -10 -97 3 -90 0 -84 75 -115 48 -20 77
-49 88 -85 18 -64 29 -70 118 -70 51 0 88 5 95 12 22 22 14 99 -17 163 -34 72
-101 137 -179 173 -70 32 -152 41 -170 19z"/>
<path d="M3159 1241 l-24 -19 0 -307 c0 -358 -8 -335 110 -335 116 0 109 -19
113 312 4 305 -2 351 -41 362 -50 13 -134 6 -158 -13z"/>
<path d="M11472 1238 c-7 -7 -12 -43 -12 -93 0 -50 5 -86 12 -93 9 -9 107 -12
379 -12 l368 0 15 22 c10 14 16 44 16 83 0 39 -6 69 -16 83 l-15 22 -368 0
c-272 0 -370 -3 -379 -12z"/>
<path d="M622 1228 c-9 -9 -12 -92 -12 -313 0 -355 -6 -335 106 -335 112 0
108 -8 112 234 l3 205 260 3 c305 4 289 -3 289 114 0 53 -4 77 -16 88 -13 14
-61 16 -373 16 -264 0 -360 -3 -369 -12z"/>
<path d="M3693 978 c-29 -14 -33 -38 -19 -101 37 -160 143 -257 323 -297 37
-9 50 -8 69 5 22 14 24 22 24 94 0 88 -8 102 -72 119 -71 19 -128 78 -128 132
0 41 -34 60 -107 59 -38 0 -78 -5 -90 -11z"/>
<path d="M9997 952 c-14 -16 -17 -43 -17 -173 0 -191 0 -192 99 -197 54 -3 77
0 96 12 25 16 25 17 25 180 0 198 1 196 -112 196 -60 0 -78 -4 -91 -18z"/>
<path d="M9257 782 c-13 -14 -17 -38 -17 -95 0 -110 -2 -109 240 -105 226 4
220 1 220 110 0 108 1 108 -233 108 -175 0 -196 -2 -210 -18z"/>
<path d="M11477 782 c-13 -14 -17 -38 -17 -94 0 -116 -32 -108 427 -108 457 0
423 -9 423 112 0 116 32 108 -427 108 -365 0 -391 -1 -406 -18z"/>
</g>
</svg>
