<svg width="1440" height="726" viewBox="0 0 1440 726" fill="none" xmlns="http://www.w3.org/2000/svg">
<path fill-rule="evenodd" clip-rule="evenodd" d="M1440 0H0V341.479L120.929 220.55C122.775 218.699 124.968 217.231 127.383 216.229C129.797 215.227 132.386 214.711 135 214.711C137.614 214.711 140.203 215.227 142.617 216.229C145.032 217.231 147.225 218.699 149.072 220.55L254.25 325.768V274.372C254.25 269.1 256.344 264.045 260.071 260.318C263.799 256.591 268.854 254.497 274.125 254.497H313.875C319.146 254.497 324.202 256.591 327.929 260.318C331.656 264.045 333.75 269.1 333.75 274.372V405.268L387.572 459.05C389.416 460.899 390.878 463.094 391.874 465.508C392.87 467.923 393.38 470.51 393.375 473.122V726H1440V0ZM353.625 726H214.5V572.497C214.5 567.225 212.406 562.17 208.679 558.443C204.952 554.716 199.896 552.622 194.625 552.622H75.375C70.1039 552.622 65.0486 554.716 61.3213 558.443C57.594 562.17 55.5 567.225 55.5 572.497V726H0V397.725L135 262.725L353.625 481.35V726ZM95.25 726V592.372H174.75V726H95.25Z" fill="#2C2B2B"/>
</svg>
