<svg width="24" height="24" viewBox="0 0 24 24" fill="none" xmlns="http://www.w3.org/2000/svg">
<g clip-path="url(#clip0_88_1198)" filter="url(#filter0_d_88_1198)">
<path fill-rule="evenodd" clip-rule="evenodd" d="M8.97666 0.710504C9.75866 0.674504 10.008 0.666504 12 0.666504C13.992 0.666504 14.2413 0.675171 15.0227 0.710504C15.804 0.745837 16.3373 0.870504 16.804 1.05117C17.2927 1.23584 17.736 1.5245 18.1027 1.89784C18.476 2.26384 18.764 2.7065 18.948 3.19584C19.1293 3.6625 19.2533 4.19584 19.2893 4.97584C19.3253 5.75917 19.3333 6.0085 19.3333 7.99984C19.3333 9.99184 19.3247 10.2412 19.2893 11.0232C19.254 11.8032 19.1293 12.3365 18.948 12.8032C18.764 13.2926 18.4755 13.736 18.1027 14.1025C17.736 14.4758 17.2927 14.7638 16.804 14.9478C16.3373 15.1292 15.804 15.2532 15.024 15.2892C14.2413 15.3252 13.992 15.3332 12 15.3332C10.008 15.3332 9.75866 15.3245 8.97666 15.2892C8.19666 15.2538 7.66332 15.1292 7.19666 14.9478C6.70727 14.7638 6.26387 14.4753 5.89732 14.1025C5.52424 13.7363 5.23553 13.2931 5.05132 12.8038C4.87066 12.3372 4.74666 11.8038 4.71066 11.0238C4.67466 10.2405 4.66666 9.99117 4.66666 7.99984C4.66666 6.00784 4.67532 5.7585 4.71066 4.97717C4.74599 4.19584 4.87066 3.6625 5.05132 3.19584C5.23581 2.70656 5.52474 2.26338 5.89799 1.89717C6.26402 1.52417 6.70697 1.23547 7.19599 1.05117C7.66266 0.870504 8.19599 0.746504 8.97599 0.710504H8.97666ZM14.9633 2.0305C14.19 1.99517 13.958 1.98784 12 1.98784C10.042 1.98784 9.80999 1.99517 9.03666 2.0305C8.32132 2.06317 7.93332 2.1825 7.67466 2.28317C7.33266 2.4165 7.08799 2.5745 6.83132 2.83117C6.58802 3.06787 6.40078 3.35603 6.28332 3.6745C6.18266 3.93317 6.06332 4.32117 6.03066 5.0365C5.99532 5.80984 5.98799 6.04184 5.98799 7.99984C5.98799 9.95784 5.99532 10.1898 6.03066 10.9632C6.06332 11.6785 6.18266 12.0665 6.28332 12.3252C6.40066 12.6432 6.58799 12.9318 6.83132 13.1685C7.06799 13.4118 7.35666 13.5992 7.67466 13.7165C7.93332 13.8172 8.32132 13.9365 9.03666 13.9692C9.80999 14.0045 10.0413 14.0118 12 14.0118C13.9587 14.0118 14.19 14.0045 14.9633 13.9692C15.6787 13.9365 16.0667 13.8172 16.3253 13.7165C16.6673 13.5832 16.912 13.4252 17.1687 13.1685C17.412 12.9318 17.5993 12.6432 17.7167 12.3252C17.8173 12.0665 17.9367 11.6785 17.9693 10.9632C18.0047 10.1898 18.012 9.95784 18.012 7.99984C18.012 6.04184 18.0047 5.80984 17.9693 5.0365C17.9367 4.32117 17.8173 3.93317 17.7167 3.6745C17.5833 3.3325 17.4253 3.08784 17.1687 2.83117C16.9319 2.58788 16.6438 2.40064 16.3253 2.28317C16.0667 2.1825 15.6787 2.06317 14.9633 2.0305V2.0305ZM11.0633 10.2605C11.5864 10.4783 12.1689 10.5076 12.7113 10.3437C13.2536 10.1797 13.7223 9.83245 14.0371 9.36133C14.3519 8.89022 14.4934 8.32442 14.4374 7.76057C14.3813 7.19673 14.1313 6.66982 13.73 6.26984C13.4741 6.01416 13.1648 5.81838 12.8242 5.6966C12.4836 5.57483 12.1203 5.53008 11.7603 5.56558C11.4004 5.60108 11.0528 5.71596 10.7425 5.90192C10.4323 6.08789 10.1672 6.34033 9.96619 6.64107C9.76523 6.94181 9.63345 7.28336 9.58033 7.64114C9.52722 7.99893 9.55409 8.36403 9.65902 8.71018C9.76394 9.05633 9.94431 9.37491 10.1871 9.64299C10.43 9.91106 10.7292 10.122 11.0633 10.2605ZM9.33466 5.3345C9.68467 4.98449 10.1002 4.70684 10.5575 4.51741C11.0148 4.32798 11.505 4.23049 12 4.23049C12.495 4.23049 12.9851 4.32798 13.4425 4.51741C13.8998 4.70684 14.3153 4.98449 14.6653 5.3345C15.0153 5.68452 15.293 6.10005 15.4824 6.55737C15.6718 7.01469 15.7693 7.50484 15.7693 7.99984C15.7693 8.49484 15.6718 8.98499 15.4824 9.44231C15.293 9.89962 15.0153 10.3152 14.6653 10.6652C13.9584 11.3721 12.9997 11.7692 12 11.7692C11.0003 11.7692 10.0415 11.3721 9.33466 10.6652C8.62777 9.95828 8.23064 8.99953 8.23064 7.99984C8.23064 7.00014 8.62777 6.04139 9.33466 5.3345V5.3345ZM16.6053 4.79184C16.6921 4.71002 16.7615 4.61162 16.8095 4.50249C16.8576 4.39335 16.8832 4.27568 16.8849 4.15646C16.8867 4.03723 16.8645 3.91887 16.8196 3.80838C16.7748 3.69789 16.7083 3.59751 16.624 3.5132C16.5396 3.42888 16.4393 3.36234 16.3288 3.31752C16.2183 3.27269 16.0999 3.25049 15.9807 3.25223C15.8615 3.25396 15.7438 3.27961 15.6347 3.32763C15.5255 3.37566 15.4271 3.4451 15.3453 3.53184C15.1862 3.70052 15.0991 3.92458 15.1025 4.15646C15.1058 4.38833 15.1995 4.60976 15.3634 4.77373C15.5274 4.93771 15.7488 5.03132 15.9807 5.0347C16.2126 5.03808 16.4366 4.95096 16.6053 4.79184V4.79184Z" fill="#FFFBFB" fill-opacity="0.65"/>
</g>
<defs>
<filter id="filter0_d_88_1198" x="0" y="0" width="24" height="24" filterUnits="userSpaceOnUse" color-interpolation-filters="sRGB">
<feFlood flood-opacity="0" result="BackgroundImageFix"/>
<feColorMatrix in="SourceAlpha" type="matrix" values="0 0 0 0 0 0 0 0 0 0 0 0 0 0 0 0 0 0 127 0" result="hardAlpha"/>
<feOffset dy="4"/>
<feGaussianBlur stdDeviation="2"/>
<feComposite in2="hardAlpha" operator="out"/>
<feColorMatrix type="matrix" values="0 0 0 0 0 0 0 0 0 0 0 0 0 0 0 0 0 0 0.25 0"/>
<feBlend mode="normal" in2="BackgroundImageFix" result="effect1_dropShadow_88_1198"/>
<feBlend mode="normal" in="SourceGraphic" in2="effect1_dropShadow_88_1198" result="shape"/>
</filter>
<clipPath id="clip0_88_1198">
<rect width="16" height="16" fill="white" transform="translate(4)"/>
</clipPath>
</defs>
</svg>
