<svg width="16" height="16" viewBox="0 0 16 16" fill="none" xmlns="http://www.w3.org/2000/svg">
<path d="M15 7.95615C15 7.92178 15 7.88271 14.9984 7.8374C14.9969 7.71084 14.9938 7.56865 14.9906 7.41709C14.9781 6.98115 14.9563 6.54678 14.9219 6.1374C14.875 5.57334 14.8062 5.10303 14.7125 4.7499C14.6136 4.38139 14.4196 4.04529 14.1501 3.77521C13.8806 3.50513 13.5449 3.31052 13.1766 3.21084C12.7344 3.09209 11.8687 3.01865 10.65 2.97334C10.0703 2.95146 9.45 2.9374 8.82969 2.92959C8.6125 2.92646 8.41094 2.9249 8.22969 2.92334H7.77031C7.58906 2.9249 7.3875 2.92646 7.17031 2.92959C6.55 2.9374 5.92969 2.95146 5.35 2.97334C4.13125 3.02021 3.26406 3.09365 2.82344 3.21084C2.455 3.31028 2.11917 3.5048 1.8496 3.77492C1.58003 4.04504 1.38619 4.38126 1.2875 4.7499C1.19219 5.10303 1.125 5.57334 1.07812 6.1374C1.04375 6.54678 1.02187 6.98115 1.00937 7.41709C1.00469 7.56865 1.00312 7.71084 1.00156 7.8374C1.00156 7.88271 1 7.92178 1 7.95615V8.04365C1 8.07803 1 8.11709 1.00156 8.1624C1.00312 8.28897 1.00625 8.43115 1.00937 8.58271C1.02187 9.01865 1.04375 9.45303 1.07812 9.8624C1.125 10.4265 1.19375 10.8968 1.2875 11.2499C1.4875 11.9983 2.075 12.589 2.82344 12.789C3.26406 12.9077 4.13125 12.9812 5.35 13.0265C5.92969 13.0483 6.55 13.0624 7.17031 13.0702C7.3875 13.0733 7.58906 13.0749 7.77031 13.0765H8.22969C8.41094 13.0749 8.6125 13.0733 8.82969 13.0702C9.45 13.0624 10.0703 13.0483 10.65 13.0265C11.8687 12.9796 12.7359 12.9062 13.1766 12.789C13.925 12.589 14.5125 11.9999 14.7125 11.2499C14.8078 10.8968 14.875 10.4265 14.9219 9.8624C14.9563 9.45303 14.9781 9.01865 14.9906 8.58271C14.9953 8.43115 14.9969 8.28897 14.9984 8.1624C14.9984 8.11709 15 8.07803 15 8.04365V7.95615ZM13.875 8.0374C13.875 8.07022 13.875 8.10615 13.8734 8.14834C13.8719 8.27021 13.8688 8.40459 13.8656 8.5499C13.8547 8.96553 13.8328 9.38115 13.8 9.76709C13.7578 10.2702 13.6984 10.6827 13.625 10.9593C13.5281 11.3202 13.2437 11.6062 12.8844 11.7015C12.5562 11.789 11.7297 11.8593 10.6062 11.9015C10.0375 11.9233 9.425 11.9374 8.81406 11.9452C8.6 11.9483 8.40156 11.9499 8.22344 11.9499H7.77656L7.18594 11.9452C6.575 11.9374 5.96406 11.9233 5.39375 11.9015C4.27031 11.8577 3.44219 11.789 3.11562 11.7015C2.75625 11.6046 2.47187 11.3202 2.375 10.9593C2.30156 10.6827 2.24219 10.2702 2.2 9.76709C2.16719 9.38115 2.14688 8.96553 2.13438 8.5499C2.12969 8.40459 2.12813 8.26865 2.12656 8.14834C2.12656 8.10615 2.125 8.06865 2.125 8.0374V7.9624C2.125 7.92959 2.125 7.89365 2.12656 7.85146C2.12813 7.72959 2.13125 7.59521 2.13438 7.4499C2.14531 7.03428 2.16719 6.61865 2.2 6.23271C2.24219 5.72959 2.30156 5.31709 2.375 5.04053C2.47187 4.67959 2.75625 4.39365 3.11562 4.29834C3.44375 4.21084 4.27031 4.14053 5.39375 4.09834C5.9625 4.07646 6.575 4.0624 7.18594 4.05459C7.4 4.05146 7.59844 4.0499 7.77656 4.0499H8.22344L8.81406 4.05459C9.425 4.0624 10.0359 4.07646 10.6062 4.09834C11.7297 4.14209 12.5578 4.21084 12.8844 4.29834C13.2437 4.39521 13.5281 4.67959 13.625 5.04053C13.6984 5.31709 13.7578 5.72959 13.8 6.23271C13.8328 6.61865 13.8531 7.03428 13.8656 7.4499C13.8703 7.59521 13.8719 7.73115 13.8734 7.85146C13.8734 7.89365 13.875 7.93115 13.875 7.9624V8.0374ZM6.60938 10.0937L10.2344 7.98428L6.60938 5.90615V10.0937Z" fill="#FFFBFB" fill-opacity="0.65"/>
</svg>
